<?xml version="1.0" standalone="no"?>
<!DOCTYPE svg PUBLIC "-//W3C//DTD SVG 20010904//EN"
 "http://www.w3.org/TR/2001/REC-SVG-20010904/DTD/svg10.dtd">
<svg version="1.0" xmlns="http://www.w3.org/2000/svg"
 width="348.000000pt" height="348.000000pt" viewBox="0 0 348.000000 348.000000"
 preserveAspectRatio="xMidYMid meet">
<metadata>
Created by potrace 1.14, written by Peter Selinger 2001-2017
</metadata>
<g transform="translate(0.000000,348.000000) scale(0.100000,-0.100000)"
fill="#000000" stroke="none">
<path d="M1832 2238 c-35 -35 3 -108 56 -108 51 0 88 72 56 105 -18 18 -95 20
-112 3z"/>
<path d="M219 2186 c-2 -2 -17 -6 -34 -9 -42 -6 -105 -34 -105 -46 0 -5 -8
-12 -18 -16 -40 -12 -57 -109 -24 -137 23 -20 60 -20 92 -1 24 14 26 20 22 59
-5 57 20 98 71 119 22 9 42 14 44 11 14 -14 21 -92 18 -204 -3 -134 -7 -165
-26 -188 -14 -17 -18 -16 103 -18 54 0 98 3 98 7 0 4 -7 18 -15 31 -10 15 -17
50 -18 92 l-2 68 53 0 52 1 1 -115 c1 -143 3 -162 27 -208 31 -60 62 -77 151
-79 88 -2 148 21 184 71 20 28 26 82 10 97 -18 18 -77 15 -100 -5 -24 -20 -31
-46 -13 -46 12 0 13 -49 2 -67 -4 -6 -19 -16 -34 -22 -21 -8 -30 -6 -46 9 -40
37 -51 101 -52 280 0 162 8 248 26 284 8 16 14 31 14 33 0 1 -45 3 -101 3 -92
0 -101 -2 -94 -17 18 -44 22 -74 21 -134 l-1 -64 -50 0 -50 0 -1 60 c0 71 11
128 25 133 6 2 11 8 11 13 0 9 -232 13 -241 5z"/>
<path d="M805 2101 c-74 -34 -107 -92 -102 -178 9 -138 180 -216 309 -140 77
45 105 113 82 201 -14 54 -65 113 -106 122 -62 15 -144 12 -183 -5z m124 -10
c34 -19 51 -165 29 -254 -6 -25 -35 -57 -52 -57 -48 0 -76 72 -72 184 4 109
39 156 95 127z"/>
<path d="M1248 2114 c-2 -1 -32 -7 -67 -13 -35 -6 -66 -13 -69 -16 -3 -3 3
-14 13 -25 16 -17 18 -37 18 -123 -2 -116 -3 -128 -23 -152 -10 -12 -10 -19
-3 -23 9 -5 186 -8 201 -3 1 1 -5 12 -14 25 -18 28 -27 73 -26 131 0 67 1 69
33 104 28 31 32 32 46 18 31 -31 29 -220 -3 -251 -8 -8 -14 -18 -14 -23 0 -8
197 -10 205 -1 3 3 -2 19 -11 36 -19 39 -26 157 -11 191 22 49 47 63 70 38 17
-18 19 -30 22 -162 4 -159 15 -208 61 -255 l24 -26 -56 -32 -55 -32 -15 35
c-32 77 -121 124 -228 120 -35 -1 -77 -9 -100 -20 -66 -31 -95 -104 -60 -153
18 -26 87 -64 112 -61 9 1 19 0 22 -1 15 -7 100 -5 100 3 0 4 4 6 9 3 5 -3 34
3 65 14 30 10 58 15 61 10 9 -15 -18 -49 -53 -66 -35 -17 -54 -15 -110 7 -30
13 -34 12 -59 -13 -57 -58 -20 -128 64 -121 96 9 178 90 186 184 2 33 18 47
87 81 14 7 28 16 31 21 3 5 26 -1 50 -12 166 -77 366 -27 385 95 5 31 -25 74
-57 83 -68 19 -174 -11 -267 -74 l-36 -25 -14 27 c-10 18 -15 76 -18 192 -4
171 -5 182 -19 216 -15 35 -35 47 -82 50 -43 3 -50 0 -85 -36 -21 -21 -38 -45
-38 -52 -1 -6 -8 2 -17 18 -31 60 -51 73 -102 71 -41 -3 -53 -8 -85 -42 -33
-36 -36 -37 -26 -11 5 15 7 27 4 27 -4 0 -2 6 4 13 8 9 4 13 -18 13 -16 1 -30
0 -32 -2z m846 -423 c44 -45 2 -118 -81 -141 -89 -25 -171 -13 -208 32 l-26
30 28 15 c15 8 35 20 43 27 13 11 100 48 140 59 29 8 85 -4 104 -22z m-616
-100 c39 -20 65 -45 75 -72 4 -13 -9 -21 -64 -37 -38 -12 -76 -19 -83 -16 -8
3 -17 1 -20 -4 -12 -19 -86 9 -101 38 -12 23 -13 66 -3 75 45 37 139 45 196
16z"/>
<path d="M1937 2114 c-1 -1 -22 -5 -47 -8 -101 -14 -130 -23 -102 -33 45 -16
50 -236 7 -283 -13 -14 -14 -20 -3 -26 16 -10 188 -12 194 -2 3 4 -3 19 -12
33 -25 38 -24 244 1 307 5 13 2 17 -15 15 -11 -1 -22 -2 -23 -3z"/>
<path d="M2105 2103 c-94 -49 -132 -149 -91 -241 50 -111 237 -146 319 -61 20
21 26 34 19 41 -7 7 -18 4 -33 -11 -26 -24 -79 -31 -125 -16 -20 6 -64 70 -64
93 0 8 88 34 115 33 2 0 19 5 37 10 18 5 46 12 63 15 16 3 31 7 34 9 9 9 -46
99 -72 119 -36 27 -157 32 -202 9z m127 -17 c19 -14 38 -57 38 -87 0 -21 -24
-34 -84 -43 -21 -4 -42 -9 -46 -11 -32 -20 -3 110 30 137 26 21 39 22 62 4z"/>
<path d="M2414 2113 c-6 -2 -8 -17 -6 -33 2 -17 0 -36 -6 -43 -9 -11 1 -57 12
-57 3 0 17 20 32 45 27 47 51 65 89 70 20 2 22 -1 15 -24 -12 -38 -41 -105
-49 -111 -4 -3 -18 -26 -31 -53 -24 -46 -51 -83 -86 -119 -9 -9 -14 -20 -11
-25 8 -13 227 -8 287 6 76 18 158 58 171 83 21 39 21 73 -2 97 -23 25 -53 23
-97 -5 -18 -12 -22 -21 -18 -40 10 -38 -19 -88 -59 -103 -77 -28 -93 -22 -72
25 27 62 118 206 162 256 14 15 21 29 17 31 -9 6 -333 5 -348 0z"/>
<path d="M2200 1700 c-4 -8 -20 -69 -35 -135 -15 -66 -36 -150 -46 -187 -10
-38 -15 -69 -11 -69 4 -1 310 -2 680 -3 671 -2 672 -2 673 19 4 101 0 377 -5
383 -4 4 -287 7 -628 7 -547 1 -621 -1 -628 -15z"/>
</g>
</svg>
